<?xml version="1.0" standalone="no"?>
<!DOCTYPE svg PUBLIC "-//W3C//DTD SVG 20010904//EN"
 "http://www.w3.org/TR/2001/REC-SVG-20010904/DTD/svg10.dtd">
<svg version="1.0" xmlns="http://www.w3.org/2000/svg"
 width="366.000000pt" height="366.000000pt" viewBox="0 0 366.000000 366.000000"
 preserveAspectRatio="xMidYMid meet">
<metadata>
Created by potrace 1.14, written by Peter Selinger 2001-2017
</metadata>
<g transform="translate(0.000000,366.000000) scale(0.100000,-0.100000)"
fill="#000000" stroke="none">
<path d="M1460 3033 c-119 -13 -319 -84 -437 -155 -97 -58 -215 -161 -290
-253 -90 -111 -181 -289 -220 -430 -26 -94 -28 -112 -27 -290 0 -162 4 -201
22 -268 54 -195 144 -361 270 -497 481 -520 1312 -477 1737 88 110 147 188
333 216 512 18 119 7 335 -24 453 -81 307 -301 582 -580 723 -95 48 -257 101
-350 113 -74 10 -240 12 -317 4z m323 -58 c227 -40 408 -130 570 -284 136
-130 222 -265 281 -441 46 -139 60 -244 53 -394 -23 -501 -385 -917 -880
-1011 -102 -19 -292 -19 -394 0 -415 79 -736 378 -850 791 -25 90 -27 115 -28
269 0 193 16 278 84 435 193 448 688 718 1164 635z"/>
<path d="M1330 2768 c0 -27 25 -67 35 -56 4 4 8 22 8 40 2 27 -2 34 -20 36
-18 3 -23 -1 -23 -20z"/>
<path d="M1704 2741 c-45 -27 -74 -69 -74 -106 0 -38 19 -58 40 -45 28 18 30
10 10 -29 -33 -66 -88 -98 -119 -68 -10 10 -12 8 -9 -7 4 -28 52 -41 89 -26
36 15 74 69 122 173 31 67 34 79 20 84 -9 4 -19 -1 -26 -12 -15 -27 -78 -95
-89 -95 -14 0 11 41 50 83 20 20 45 37 55 37 16 0 17 3 7 15 -17 20 -39 19
-76 -4z"/>
<path d="M1445 2698 c-19 -65 -20 -132 -1 -148 12 -9 19 -3 40 37 13 26 32 57
40 68 16 19 16 19 10 -7 -12 -52 35 -90 66 -53 10 12 9 15 -5 15 -15 0 -17 7
-12 43 3 23 9 52 12 64 5 17 2 25 -10 30 -18 6 -51 -23 -82 -73 -10 -16 -11
-15 -6 13 5 32 -9 63 -28 63 -4 0 -15 -23 -24 -52z"/>
<path d="M1143 2718 c-13 -6 -23 -18 -23 -27 0 -27 29 -131 50 -178 10 -24 17
-43 15 -43 -2 0 -25 34 -51 75 -47 74 -67 88 -92 63 -18 -18 -15 -67 9 -144
36 -115 65 -174 88 -174 24 0 36 16 20 26 -17 10 -76 143 -85 189 l-7 40 38
-50 c80 -107 117 -133 143 -102 8 9 1 27 -24 67 -32 51 -80 178 -70 187 2 3
22 -19 44 -49 22 -29 56 -68 75 -86 30 -29 38 -32 56 -23 27 15 27 27 -3 46
-28 19 -106 116 -130 163 -18 35 -20 36 -53 20z"/>
<path d="M1842 2674 c-45 -36 -66 -78 -51 -105 10 -20 20 -21 63 -3 15 6 18 4
14 -8 -7 -17 9 -38 29 -38 7 0 13 10 13 23 0 13 15 41 34 63 l35 40 -29 27
c-35 34 -66 34 -108 1z m49 -54 c-51 -46 -81 -55 -56 -16 15 23 69 56 90 55 6
0 -10 -18 -34 -39z"/>
<path d="M2130 2673 c-62 -36 -168 -121 -180 -143 -6 -10 -10 -31 -10 -46 0
-26 2 -25 50 24 60 61 122 105 185 132 41 18 45 22 35 40 -14 26 -26 25 -80
-7z"/>
<path d="M1336 2664 c-5 -14 1 -49 20 -116 3 -10 15 -18 26 -18 16 0 19 5 14
23 -3 12 -6 46 -6 75 0 48 -2 52 -24 52 -13 0 -27 -7 -30 -16z"/>
<path d="M2060 2508 c-34 -18 -46 -29 -48 -50 -3 -22 2 -29 22 -34 14 -3 34
-3 43 0 15 6 14 4 -2 -14 -18 -19 -18 -22 -2 -37 16 -16 18 -16 32 4 8 11 35
30 60 42 40 19 62 51 35 51 -5 0 -10 11 -10 24 0 41 -62 48 -130 14z m110 -37
c0 -9 -83 -31 -116 -31 -20 0 -8 19 20 30 28 12 96 12 96 1z"/>
<path d="M1471 2453 c0 -6 -17 -30 -36 -53 -19 -23 -35 -47 -35 -54 0 -7 18
-37 41 -67 35 -46 40 -60 36 -94 -2 -22 -7 -49 -12 -60 -8 -18 -7 -18 8 -7 23
19 40 77 32 111 -3 16 -22 50 -42 75 l-36 46 27 35 c17 22 26 44 23 58 -2 12
-5 17 -6 10z"/>
<path d="M2165 2365 c-5 -2 -22 -6 -37 -9 -18 -4 -28 -13 -28 -25 0 -16 6 -18
43 -14 23 3 54 0 68 -5 21 -9 26 -16 22 -36 -6 -30 -2 -31 44 -14 36 13 44 35
16 44 -10 3 -27 10 -38 15 -16 8 -15 8 8 4 24 -5 27 -2 27 20 0 24 -3 25 -57
24 -32 0 -62 -2 -68 -4z"/>
<path d="M1581 2309 c0 -8 -12 -26 -26 -39 -32 -30 -32 -43 6 -95 27 -38 31
-50 26 -87 -5 -39 -4 -41 9 -24 23 32 18 90 -11 124 -29 35 -30 44 -9 77 9 13
14 32 11 42 -4 14 -5 14 -6 2z"/>
<path d="M1726 2075 c134 -24 178 -59 148 -117 l-17 -33 27 25 c69 63 -29 141
-174 139 l-55 -1 71 -13z"/>
<path d="M1315 2044 c-144 -76 5 -178 255 -176 149 2 201 20 60 21 -124 2
-248 22 -293 48 -45 27 -45 69 2 100 38 26 22 30 -24 7z"/>
<path d="M1475 1999 c-49 -8 -139 -38 -133 -44 2 -2 39 6 83 17 105 26 315 31
360 8 23 -12 30 -22 28 -43 -2 -23 1 -26 16 -17 24 13 34 39 21 56 -26 31
-247 45 -375 23z"/>
<path d="M1907 1833 c-9 -65 -19 -129 -22 -143 -5 -25 -5 -25 6 -2 14 26 20
27 61 6 43 -22 119 -22 153 0 40 26 68 97 60 149 -9 49 -61 107 -96 107 -22 0
-22 -2 8 -20 39 -23 63 -67 63 -115 0 -26 -9 -45 -33 -71 -28 -31 -41 -37 -85
-42 -63 -6 -116 13 -107 37 8 20 20 211 13 211 -2 0 -12 -53 -21 -117z"/>
<path d="M1260 1873 c1 -247 137 -433 317 -433 64 0 138 25 164 56 15 19 10
18 -45 -7 -61 -26 -150 -27 -208 -1 -113 50 -208 230 -208 392 0 28 -4 50 -10
50 -6 0 -10 -26 -10 -57z"/>
<path d="M2053 1847 c17 -44 -47 -78 -82 -44 -11 10 -13 9 -9 -3 3 -8 17 -22
31 -30 24 -13 30 -13 55 0 33 19 41 60 16 81 -16 12 -17 12 -11 -4z"/>
<path d="M1831 1290 c-38 -9 -64 -37 -83 -87 -8 -22 -19 -33 -33 -34 -18 -1
-18 -2 -2 -6 14 -4 17 -11 13 -26 -31 -108 -46 -189 -37 -205 11 -20 6 -31 52
121 26 86 36 107 51 107 10 0 18 5 18 10 0 6 -7 10 -15 10 -14 0 -14 4 0 38 9
20 22 44 30 52 13 12 15 12 15 -2 0 -30 18 -29 29 2 5 17 7 30 3 29 -4 -1 -22
-5 -41 -9z"/>
<path d="M1436 1280 c-66 -20 -119 -103 -120 -188 -1 -47 3 -57 27 -78 37 -32
59 -30 102 7 49 43 44 56 -7 18 l-43 -30 -18 23 c-37 45 -2 167 64 222 46 39
59 29 47 -36 -5 -28 16 -23 31 7 13 26 12 30 -9 47 -24 20 -31 20 -74 8z"/>
<path d="M1852 1160 c-44 -43 -59 -94 -38 -125 9 -14 26 -25 37 -25 23 0 69
28 69 41 0 5 -13 0 -29 -12 -29 -22 -51 -19 -51 6 0 7 16 22 35 34 40 24 70
78 53 99 -17 20 -45 14 -76 -18z m58 -15 c0 -18 -44 -65 -60 -65 -15 0 16 56
37 69 23 13 23 14 23 -4z"/>
<path d="M1552 1145 c-38 -42 -51 -100 -29 -122 19 -19 40 -8 68 33 l19 29 -2
-35 c-2 -26 1 -35 15 -38 15 -3 18 0 13 16 -4 11 2 45 13 76 26 75 4 76 -37 3
-47 -84 -86 -104 -62 -33 6 19 25 46 41 60 16 14 29 29 29 35 0 23 -39 9 -68
-24z"/>
</g>
</svg>
